# xmcd
#
# Track frame offsets:
#	150
#	19016
#	35150
#	46978
#	68770
#	82165
#	101132
#	119267
#	138663
#	150290
#	171947
#	185440
#	200197
#	218560
#	234125
#
# Disc length: 3351 seconds
#
# Revision: 1
# Processed by: cddbd v1.5.2PL0 Copyright (c) Steve Scherf et al.
# Submitted via: audiograbber 1.83.01
#
DISCID=d00d150f
DTITLE=Dion - Bronx in blue
DYEAR=2006
DGENRE=Blues
TTITLE0=Walkin' Blues
TTITLE1=You're the one
TTITLE2=I let my baby do that
TTITLE3=Who do you love
TTITLE4=Built for comfort
TTITLE5=Crossroads
TTITLE6=Travelin' riverside Blues
TTITLE7=You better watch yourself
TTITLE8=How many more years
TTITLE9=Terraplane Blues
TTITLE10=Honky tonk Blues
TTITLE11=Baby, what do you want me to do
TTITLE12=Statesboro blues
TTITLE13=If you wanna rock and roll 
TTITLE14=The wanderer (Bonus) 
EXTD=
EXTT0=
EXTT1=
EXTT2=
EXTT3=
EXTT4=
EXTT5=
EXTT6=
EXTT7=
EXTT8=
EXTT9=
EXTT10=
EXTT11=
EXTT12=
EXTT13=
EXTT14=
PLAYORDER=
